# xmcd
#
# Track frame offsets: 
#        150
#        12900
#        27065
#
# Disc length: 531 seconds
#
# Revision: 0
# Processed by: cddbd v1.5.2PL0 Copyright (c) Steve Scherf et al.
# Submitted via: ExactAudioCopyFreeDBPlugin 1.0
#
DISCID=15021103
DTITLE=Paul Glaser and Annika Bruhn - Nashville
DYEAR=2000
DGENRE=Country
TTITLE0=Nashville - radio edit
TTITLE1=Nashville - remix
TTITLE2=Nashville - instrumental
EXTD=
EXTT0=
EXTT1=
EXTT2=
PLAYORDER=
